# xmcd
#
# Track frame offsets:
#	150
#	15333
#	36810
#	58011
#	76564
#	91743
#	113422
#	134311
#	149724
#	172227
#	191978
#	209425
#	227090
#	249465
#
# Disc length: 3624 seconds
#
# Revision: 1
# Processed by: cddbd v1.5.2PL0 Copyright (c) Steve Scherf et al.
# Submitted via: audiograbber 1.83.01
#
DISCID=ba0e260e
DTITLE=Paul Millns - A Little Thunder
DYEAR=2018
DGENRE=Blues
TTITLE0=Drink up people
TTITLE1=The only dance that matters
TTITLE2=Weather for the blues
TTITLE3=She's flying today
TTITLE4=If I were you I'd leave me
TTITLE5=God's little mistake
TTITLE6=A little thunder
TTITLE7=My father's son
TTITLE8=Breathing in and breathing out
TTITLE9=God save the self doubters
TTITLE10=Too soon
TTITLE11=Drunk again
TTITLE12=The first smile
TTITLE13=Last love
EXTD=
EXTT0=
EXTT1=
EXTT2=
EXTT3=
EXTT4=
EXTT5=
EXTT6=
EXTT7=
EXTT8=
EXTT9=
EXTT10=
EXTT11=
EXTT12=
EXTT13=
PLAYORDER=
